<?xml version="1.0" encoding="UTF-8" standalone="no"?>
<svg
   version="1.1"
   width="506.79553"
   height="523.88953"
   id="svg2"
   inkscape:version="1.1.1 (3bf5ae0d25, 2021-09-20)"
   sodipodi:docname="Crypto_key.svg"
   xmlns:inkscape="http://www.inkscape.org/namespaces/inkscape"
   xmlns:sodipodi="http://sodipodi.sourceforge.net/DTD/sodipodi-0.dtd"
   xmlns="http://www.w3.org/2000/svg"
   xmlns:svg="http://www.w3.org/2000/svg"
   xmlns:rdf="http://www.w3.org/1999/02/22-rdf-syntax-ns#"
   xmlns:cc="http://creativecommons.org/ns#"
   xmlns:dc="http://purl.org/dc/elements/1.1/">
  <metadata
     id="metadata27">
    <rdf:RDF>
      <cc:Work
         rdf:about="">
        <dc:format>image/svg+xml</dc:format>
        <dc:type
           rdf:resource="http://purl.org/dc/dcmitype/StillImage" />
      </cc:Work>
    </rdf:RDF>
  </metadata>
  <sodipodi:namedview
     pagecolor="#ffffff"
     bordercolor="#666666"
     borderopacity="1"
     objecttolerance="10"
     gridtolerance="10"
     guidetolerance="10"
     inkscape:pageopacity="0"
     inkscape:pageshadow="2"
     inkscape:window-width="1920"
     inkscape:window-height="991"
     id="namedview25"
     showgrid="false"
     fit-margin-top="0"
     fit-margin-left="0"
     fit-margin-right="0"
     fit-margin-bottom="0"
     inkscape:zoom="1.2270706"
     inkscape:cx="275.04529"
     inkscape:cy="253.85662"
     inkscape:window-x="-9"
     inkscape:window-y="-9"
     inkscape:window-maximized="1"
     inkscape:current-layer="layer1"
     inkscape:pagecheckerboard="0" />
  <defs
     id="defs4" />
  <path
     d="M 471.8868,226.06948 C 517.05274,180.90354 519.39686,112.23354 455.82998,48.66666 392.26309,-14.900225 329.06319,-8.2385274 283.89725,36.927421 247.95822,72.866444 225.01994,114.4871 259.40897,170.84145 l -66.93208,66.93208 4.83927,50.62442 -15.09231,15.09231 h -20.32932 l -24.37309,24.37309 2.93891,11.02645 -23.4892,23.4892 -29.588,-7.93286 -19.86528,19.86529 v 25.7652 L 50.41472,417.17977 H 20.67204 L 2,435.85181 V 510.319 l 10.98226,10.98225 10.2789,-7.03771 45.71247,0.3056 267.55418,-267.75791 c 55.61515,32.7223 100.03159,14.58565 135.35899,-20.74175 z m -25.69115,-81.39922 c -14.49772,14.4977 -44.5678,3.32483 -67.13095,-19.23832 -22.56316,-22.56316 -29.12598,-52.633236 -14.62827,-67.130946 14.4977,-14.497709 44.58989,-7.956985 67.15304,14.60617 22.56316,22.56316 29.10389,57.265386 14.60618,71.763096 z"
     style="fill:#ffd839;fill-opacity:1;stroke:#000000;stroke-width:4"
     id="path19"
     inkscape:connector-curvature="0"
     sodipodi:nodetypes="ssscccccccccccccccccccssssss" />
  <g
     inkscape:groupmode="layer"
     id="layer1"
     inkscape:label="Above"
     transform="translate(-54.234713,109.10349)">
    <path
       d="m 76.387263,407.49109 c 1.45185,0.81039 35.077767,-0.25706 28.417707,0.39401 0,0 196.11959,-200.06565 220.58522,-224.53128 24.46562,-24.46562 16.37346,-41.23912 16.37346,-41.23912 z"
       style="fill:#806700;fill-opacity:1;stroke:none;stroke-width:1.9"
       id="path21"
       inkscape:connector-curvature="0"
       sodipodi:nodetypes="ccscc" />
  </g>
</svg>
